<svg width="104" height="104" viewBox="0 0 104 104" fill="none" xmlns="http://www.w3.org/2000/svg">
<path d="M78.163 7.45228C82.0682 3.54703 88.3998 3.54704 92.3051 7.45228L96.1942 11.3414C100.099 15.2466 100.099 21.5783 96.1942 25.4835L25.4835 96.1942C21.5783 100.099 15.2466 100.099 11.3414 96.1942L7.45228 92.3051C3.54703 88.3998 3.54703 82.0682 7.45228 78.163L78.163 7.45228Z" fill="white"/>
<path d="M96.5477 78.1629C100.453 82.0682 100.453 88.3998 96.5477 92.3051L92.6586 96.1942C88.7534 100.099 82.4217 100.099 78.5165 96.1942L7.80583 25.4835C3.90059 21.5782 3.90059 15.2466 7.80583 11.3414L11.6949 7.45226C15.6002 3.54702 21.9318 3.54702 25.8371 7.45227L96.5477 78.1629Z" fill="white"/>
</svg>
