<svg width="108" height="103" viewBox="0 0 108 103" fill="none" xmlns="http://www.w3.org/2000/svg">
<path d="M0 12.7366C0 5.70235 5.70235 0 12.7366 0H95.2634C102.298 0 108 5.70235 108 12.7366V12.7366C108 19.7708 102.298 25.4731 95.2634 25.4731H12.7366C5.70235 25.4731 0 19.7708 0 12.7366V12.7366Z" fill="white"/>
<path d="M0 51.5C0 44.4658 5.70235 38.7634 12.7366 38.7634H95.2634C102.298 38.7634 108 44.4658 108 51.5V51.5C108 58.5342 102.298 64.2365 95.2634 64.2365H12.7366C5.70235 64.2365 0 58.5342 0 51.5V51.5Z" fill="white"/>
<path d="M0 90.2634C0 83.2292 5.70235 77.5269 12.7366 77.5269H95.2634C102.298 77.5269 108 83.2292 108 90.2634V90.2634C108 97.2976 102.298 103 95.2634 103H12.7366C5.70235 103 0 97.2976 0 90.2634V90.2634Z" fill="white"/>
</svg>
